<?xml version="1.0" encoding="UTF-8" standalone="no"?>
<!DOCTYPE svg PUBLIC "-//W3C//DTD SVG 1.1//EN" "http://www.w3.org/Graphics/SVG/1.1/DTD/svg11.dtd">
<svg xmlns="http://www.w3.org/2000/svg" xmlns:xlink="http://www.w3.org/1999/xlink" width="100%" height="100%" style="fill-rule:evenodd;clip-rule:evenodd;stroke-linejoin:round;stroke-miterlimit:1.41421;" version="1.1" viewBox="0 0 300 300" xml:space="preserve">
    <g>
        <path d="M36.753,73.544c-1.756,2.969 -3.456,5.97 -5.141,8.98c-2.383,4.257 -4.726,8.536 -7.06,12.82l51.258,37.138c0.199,0.162 0.407,0.312 0.596,0.484c0.379,0.346 0.718,0.732 1.012,1.153c0.882,1.264 1.318,2.815 1.224,4.354c-0.046,0.767 -0.222,1.526 -0.519,2.235c-0.197,0.473 -0.447,0.922 -0.744,1.34c-0.149,0.209 -0.32,0.4 -0.48,0.6l-59.253,66.159l10.926,19.759l86.676,-19.349c0.254,-0.042 0.507,-0.098 0.763,-0.126c0.514,-0.055 1.032,-0.052 1.545,0.008c0.769,0.091 1.522,0.313 2.217,0.653c1.396,0.684 2.536,1.84 3.199,3.246c0.221,0.467 0.388,0.958 0.499,1.462c0.055,0.252 0.082,0.509 0.123,0.764l6.518,62.816l25.244,0l14.863,-144.87c-13.509,-6 -27.013,-12.009 -40.516,-18.02c-13.172,-5.868 -26.342,-11.74 -39.509,-17.618c-10.209,-4.562 -20.416,-9.126 -30.615,-13.709c-6.686,-3.004 -13.369,-6.015 -20.038,-9.056l-1.574,-0.72l-1.189,-0.546c-0.008,0.014 -0.017,0.029 -0.025,0.043Zm-5.966,-2.952l-0.215,-0.118l0.012,-0.021l0.203,0.139Z" style="fill:#00a5df;"/>
        <path d="M192.462,215.633l42.445,33.416l39.308,-68.085l-72.496,-32.88c-3.086,22.516 -6.171,45.032 -9.257,67.549Zm13.148,-137.309l-3.603,36.204l33.32,12.919l44.673,-42.21l-13.468,-23.327c-20.307,5.471 -40.615,10.943 -60.922,16.414Zm-23.386,-58.324l-7.773,79.224l-63.127,-25.757l-7.717,-53.467l78.617,0Z" style="fill:#f82154;"/>
    </g>
</svg>
